<?xml version="1.0" standalone="no"?>
<!DOCTYPE svg PUBLIC "-//W3C//DTD SVG 20010904//EN"
 "http://www.w3.org/TR/2001/REC-SVG-20010904/DTD/svg10.dtd">
<svg version="1.0" xmlns="http://www.w3.org/2000/svg"
 width="400.000000pt" height="400.000000pt" viewBox="0 0 400.000000 400.000000"
 preserveAspectRatio="xMidYMid meet">
<metadata>
Created by potrace 1.11, written by Peter Selinger 2001-2013
</metadata>
<g transform="translate(0.000000,400.000000) scale(0.100000,-0.100000)"
fill="#000000" stroke="none">
<path d="M1746 3905 c-6 -6 -29 -10 -51 -9 -22 1 -43 -3 -47 -9 -3 -6 -22 -10
-42 -10 -19 0 -37 -6 -40 -13 -3 -7 -13 -10 -24 -8 -10 3 -24 -1 -31 -9 -6 -8
-20 -13 -30 -10 -10 3 -22 0 -25 -6 -4 -6 -18 -11 -31 -11 -13 0 -27 -4 -30
-10 -3 -5 -17 -10 -31 -10 -13 0 -24 -4 -24 -10 0 -5 -9 -10 -20 -10 -11 0
-20 -4 -20 -10 0 -5 -9 -10 -20 -10 -11 0 -20 -5 -20 -11 0 -6 -7 -9 -15 -5
-8 3 -18 0 -22 -7 -5 -7 -45 -30 -91 -52 -46 -22 -88 -45 -94 -52 -6 -7 -14
-10 -19 -7 -5 3 -9 0 -9 -6 0 -17 -23 -37 -38 -32 -6 2 -24 -10 -38 -27 -14
-17 -31 -31 -38 -31 -7 0 -44 -31 -82 -70 -38 -38 -74 -70 -80 -70 -13 0 -66
-55 -59 -61 3 -3 -22 -32 -55 -63 -33 -32 -60 -64 -60 -71 0 -8 -12 -23 -26
-34 -14 -11 -27 -27 -28 -35 -1 -8 -12 -24 -24 -34 -12 -11 -22 -27 -22 -36 0
-9 -9 -21 -20 -28 -11 -7 -20 -20 -20 -29 0 -9 -9 -24 -20 -34 -11 -10 -18
-20 -15 -23 3 -3 -2 -14 -12 -24 -9 -10 -13 -18 -9 -18 4 0 0 -7 -8 -16 -9 -8
-14 -20 -11 -25 4 -5 2 -9 -3 -9 -10 0 -34 -54 -36 -80 0 -8 -6 -21 -13 -28
-7 -8 -11 -17 -8 -22 3 -4 -1 -10 -9 -13 -8 -3 -12 -14 -10 -25 3 -10 -1 -24
-9 -31 -8 -6 -13 -20 -10 -30 3 -10 0 -22 -6 -25 -6 -4 -11 -15 -11 -25 0 -10
-6 -31 -14 -46 -8 -15 -12 -34 -9 -41 3 -8 -1 -21 -8 -30 -7 -9 -12 -32 -11
-52 2 -19 -2 -38 -7 -41 -5 -4 -11 -31 -12 -61 -1 -30 -6 -58 -11 -61 -12 -8
-11 -481 1 -488 12 -8 13 -129 1 -136 -6 -4 -10 6 -10 24 0 17 -4 31 -10 31
-6 0 -10 27 -10 60 0 33 -4 60 -10 60 -12 0 -14 187 -1 194 10 7 14 116 3 116
-11 0 -32 -51 -32 -77 0 -13 -4 -23 -9 -23 -5 0 -9 -13 -9 -30 1 -16 -3 -35
-9 -42 -5 -7 -10 -35 -11 -62 0 -27 -5 -52 -10 -55 -12 -8 -12 -333 0 -348 13
-16 13 -154 1 -162 -13 -8 -14 -440 -1 -464 5 -10 10 -32 10 -48 1 -16 5 -32
10 -35 4 -3 8 -18 8 -34 0 -16 5 -32 10 -35 5 -3 10 -15 10 -26 0 -10 5 -19
10 -19 6 0 10 -9 10 -20 0 -11 5 -20 10 -20 6 0 10 -8 10 -18 0 -10 9 -24 20
-32 11 -8 20 -20 20 -27 0 -7 14 -26 32 -43 17 -17 28 -33 25 -37 -7 -6 20
-30 36 -32 4 0 27 -21 51 -45 24 -25 46 -42 50 -39 3 3 17 -6 30 -20 13 -14
27 -23 30 -19 4 3 10 2 14 -3 10 -15 50 -35 67 -35 8 0 15 -4 15 -10 0 -5 11
-10 24 -10 14 0 28 -4 31 -10 3 -5 19 -10 36 -10 16 0 29 -5 29 -11 0 -7 17
-10 45 -7 31 2 45 -1 45 -9 0 -10 48 -12 213 -9 218 5 317 12 317 25 0 14 80
12 86 -3 3 -8 15 -11 30 -8 14 2 24 0 24 -7 0 -6 14 -11 30 -11 17 0 30 -4 30
-10 0 -5 11 -10 24 -10 14 0 28 -5 31 -10 3 -6 17 -10 30 -10 13 0 27 -5 31
-11 3 -6 17 -9 31 -6 13 2 30 -1 36 -8 7 -6 32 -11 56 -11 24 1 45 -3 48 -9 5
-15 618 -13 653 2 14 6 36 9 49 6 12 -2 29 2 37 8 8 7 28 12 44 11 17 0 30 4
30 9 0 5 18 9 40 9 25 0 43 5 46 14 3 8 15 11 30 8 14 -2 24 0 24 7 0 6 9 11
20 11 11 0 20 5 20 10 0 6 14 10 30 10 17 0 30 5 30 10 0 6 9 10 20 10 11 0
20 3 20 8 0 8 49 32 67 32 7 0 13 5 13 11 0 5 4 8 9 5 5 -3 14 1 21 10 7 8 19
13 27 10 7 -3 13 1 13 11 0 9 3 13 7 10 3 -4 17 0 30 8 13 9 23 12 23 8 0 -4
13 6 29 21 16 15 33 28 38 28 18 1 33 11 27 19 -3 5 2 9 10 9 8 0 32 15 52 34
21 19 41 33 44 31 3 -2 23 14 44 36 21 21 43 39 48 39 12 0 138 124 138 136 0
5 26 36 58 68 31 33 57 63 57 67 0 4 15 24 33 44 19 20 32 39 29 41 -3 3 5 16
17 28 35 39 61 80 58 94 -2 6 5 12 14 12 10 0 15 3 11 6 -3 4 0 19 9 35 8 16
11 29 7 29 -5 0 -1 5 7 10 8 5 15 13 16 17 2 16 45 102 53 108 5 3 7 14 4 25
-3 12 0 20 7 20 6 0 10 6 8 12 -3 7 1 19 9 26 7 7 13 24 13 38 0 13 5 24 10
24 6 0 10 14 10 30 0 17 5 30 10 30 6 0 10 18 10 40 0 22 5 40 10 40 6 0 10
18 10 40 0 22 4 40 8 40 4 0 9 23 10 51 0 28 5 56 10 63 5 6 9 64 8 129 -1 64
3 117 8 117 5 0 6 19 2 43 -4 23 -8 92 -10 152 -1 61 -6 117 -10 126 -4 9 -8
37 -9 62 -1 25 -5 49 -9 53 -5 4 -8 22 -8 41 0 18 -4 33 -10 33 -5 0 -10 18
-10 40 0 22 -4 40 -10 40 -5 0 -10 14 -10 30 0 17 -4 30 -10 30 -5 0 -10 14
-10 30 0 17 -4 30 -10 30 -14 0 -12 66 3 82 6 7 12 25 12 40 1 20 -5 28 -23
31 -21 4 -23 2 -20 -24 3 -17 0 -29 -6 -29 -12 0 -36 45 -36 67 0 7 -3 13 -7
13 -9 0 -33 49 -33 67 0 7 -4 13 -10 13 -5 0 -10 6 -10 13 0 7 -8 22 -18 33
-16 16 -23 31 -34 62 -1 4 -10 16 -20 27 -9 11 -16 22 -15 26 1 3 -15 23 -35
45 -21 21 -38 44 -38 49 0 6 -25 34 -55 63 -30 30 -55 59 -55 66 0 7 -18 29
-41 49 -22 21 -37 37 -33 37 3 0 -6 10 -22 23 -16 12 -32 21 -36 20 -3 -2 -26
18 -49 42 -24 25 -48 45 -54 45 -6 0 -26 14 -43 31 -18 18 -35 29 -39 26 -3
-4 -14 5 -25 18 -11 14 -23 23 -27 20 -5 -2 -18 7 -31 20 -13 13 -26 22 -30
20 -4 -3 -13 2 -20 10 -6 7 -19 11 -27 8 -11 -4 -14 -2 -9 5 6 11 -12 17 -36
13 -5 0 -8 6 -8 14 0 9 -6 12 -15 9 -8 -4 -17 1 -21 10 -3 9 -10 14 -14 11 -9
-6 -70 26 -70 37 0 4 -7 5 -15 2 -8 -4 -15 -2 -15 4 0 6 -11 9 -25 7 -14 -1
-25 2 -25 6 0 11 -70 40 -80 34 -4 -3 -14 2 -21 11 -7 8 -24 14 -38 13 -14 -2
-36 3 -49 10 -12 6 -30 11 -40 10 -9 -2 -26 2 -38 8 -11 7 -34 11 -51 11 -16
-1 -36 3 -44 8 -21 13 -629 13 -643 -1z m-1576 -2741 c0 -14 4 -23 10 -19 6 3
10 2 10 -3 0 -16 104 -112 122 -112 9 0 20 -9 23 -20 3 -11 15 -20 26 -20 10
0 19 -5 19 -11 0 -5 8 -9 18 -8 31 3 42 -1 42 -14 0 -7 14 -26 30 -42 17 -16
30 -35 30 -42 0 -8 7 -16 15 -19 8 -4 13 -10 10 -14 -3 -4 2 -10 10 -14 8 -3
15 -11 15 -19 0 -7 29 -42 64 -77 36 -35 63 -67 61 -70 -7 -12 62 -77 89 -84
14 -3 26 -13 26 -20 0 -8 8 -17 18 -21 15 -7 13 -9 -8 -15 -17 -4 -30 -1 -40
10 -14 15 -54 19 -66 7 -3 -3 -14 3 -25 14 -11 11 -25 17 -31 13 -6 -4 -8 -3
-5 3 4 6 -2 13 -13 16 -11 3 -20 0 -20 -6 -1 -7 -6 -6 -13 3 -11 14 -68 43
-81 41 -3 0 -17 9 -30 22 -74 66 -87 77 -94 74 -12 -3 -59 47 -55 59 2 6 -12
24 -31 39 -20 15 -33 32 -30 37 3 4 -2 15 -10 24 -9 9 -14 19 -12 23 3 4 -4
14 -15 21 -10 8 -19 22 -19 31 0 9 -6 19 -14 22 -9 4 -12 14 -9 25 2 11 0 23
-6 26 -6 4 -11 18 -11 31 0 13 -4 27 -10 30 -5 3 -10 28 -10 56 0 27 5 49 10
49 6 0 10 -12 10 -26z"/>
</g>
</svg>
